# AST/ASF file generated using VICON BodyLanguage
# -----------------------------------------------
:version 1.10
:name VICON
:units
  mass 1.0
  length 0.45
  angle deg
:documentation
   .ast/.asf automatically generated from VICON data using
   VICON BodyBuilder and BodyLanguage model FoxedUp or BRILLIANT.MOD
:root
   order TX TY TZ RX RY RZ
   axis XYZ
   position 0 0 0  
   orientation 0 0 0 
:bonedata
  begin
     id 1 
     name lhipjoint
     direction 0.610259 -0.730986 0.305356 
     length 2.50941 
     axis 0 0 0  XYZ
  end
  begin
     id 2 
     name lfemur
     direction 0.34202 -0.939693 0  
     length 7.48822  
     axis 0 0 20  XYZ
    dof rx ry rz
    limits (-160.0 20.0)
           (-70.0 70.0)
           (-60.0 70.0)
  end
  begin
     id 3 
     name ltibia
     direction 0.34202 -0.939693 0   
     length 7.60141   
     axis 0 0 20   XYZ
    dof rx
    limits (-10.0 170.0)
  end
  begin
     id 4 
     name lfoot
     direction 0.0673488 -0.185039 0.980421   
     length 2.04049   
     axis -90 7.62852e-016 20   XYZ
    dof rx rz
    limits (-45.0 90.0)
           (-70.0 20.0)
  end
  begin
     id 5 
     name ltoes
     direction 1.5356e-011 -4.21729e-011 1   
     length 1.02897   
     axis -90 7.62852e-016 20   XYZ
    dof rx
    limits (-90.0 20.0)
  end
  begin
     id 6 
     name rhipjoint
     direction -0.57612 -0.754205 0.315056   
     length 2.43216  
     axis 0 0 0  XYZ 
  end
  begin
     id 7 
     name rfemur
     direction -0.34202 -0.939693 0   
     length 7.42799   
     axis 0 0 -20   XYZ
    dof rx ry rz
    limits (-160.0 20.0)
           (-70.0 70.0)
           (-70.0 60.0)
  end
  begin
     id 8 
     name rtibia
     direction -0.34202 -0.939693 0   
     length 7.69484   
     axis 0 0 -20   XYZ
    dof rx
    limits (-10.0 170.0)
 end
 begin
     id 9 
     name rfoot
     direction -0.111837 -0.30727 0.945028   
     length 2.15769  
     axis -90 -7.62852e-016 -20   XYZ
    dof rx rz
    limits (-45.0 90.0)
           (-20.0 70.0)
  end
  begin
     id 10 
     name rtoes
     direction -1.53539e-011 -4.21878e-011 1   
     length 1.07391   
     axis -90 -7.62852e-016 -20   XYZ
    dof rx
    limits (-90.0 20.0)
  end
  begin
     id 11 
     name lowerback
     direction 0.00552624 0.990109 -0.140195   
     length 2.12403   
     axis 0 0 0   XYZ
    dof rx ry rz
    limits (-20.0 45.0)
           (-30.0 30.0)
           (-30.0 30.0)
  end
  begin
     id 12 
     name upperback
     direction 0.00361898 0.999976 -0.00584723   
     length 2.13232   
     axis 0 0 0   XYZ
    dof rx ry rz
    limits (-20.0 45.0)
           (-30.0 30.0)
           (-30.0 30.0)
  end
  begin
     id 13 
     name thorax
     direction -0.000331275 0.998253 0.0590847   
     length 2.17688   
     axis 0 0 0   XYZ
    dof rx ry rz
    limits (-20.0 45.0)
           (-30.0 30.0)
           (-30.0 30.0)
  end
  begin
     id 14 
     name lowerneck
     direction -0.0561561 0.979832 0.19177   
     length 1.64159   
     axis 0 0 0   XYZ
    dof rx ry rz
    limits (-20.0 45.0)
           (-30.0 30.0)
           (-30.0 30.0)
  end
  begin
     id 15 
     name upperneck
     direction 0.0827153 0.979385 -0.184293   
     length 1.68939   
     axis 0 0 0   XYZ
    dof rx ry rz
    limits (-20.0 45.0)
           (-30.0 30.0)
           (-30.0 30.0)
  end
  begin
     id 16
     name head
     direction 0.0278583 0.995936 -0.0856488  
     length 1.70207  
     axis 0 0 0   XYZ
    dof rx ry rz
    limits (-20.0 45.0)
           (-30.0 30.0)
           (-30.0 30.0)
  end
  begin
     id 17 
     name lclavicle
     direction 0.950993 0.301131 -0.0702275  
     length 3.41652  
     axis 0 0 0   XYZ
    dof ry rz
    limits (-20.0 10.0)
           (0.0 20.0)
  end
  begin
     id 18 
     name lhumerus
     direction 1 -4.48981e-011 -3.9662e-029   
     length 5.32955   
     axis 180 -30 -90   XYZ
    dof rx ry rz
    limits (-60.0 90.0)
           (-90.0 90.0)
           (-90.0 90.0)
  end
  begin
     id 19
     name lradius
     direction 1 -4.48925e-011 -9.0549e-027   
     length 3.69232   
     axis 180 -30 -90   XYZ
    dof rx
    limits (-10.0 170.0)
  end
  begin
     id 20
     name lwrist
     direction 1 -4.49007e-011 -1.49005e-026   
     length 1.84616   
     axis 9.0955e-015 90 90   XYZ
    dof ry
    limits (-180.0 0.0)
 end
  begin
     id 21 
     name lhand
     direction 1 -4.49016e-011 -2.98023e-026   
     length 0.536598   
     axis 1.90115e-014 90 90   XYZ
    dof rx rz
    limits (-90.0 90.0)
           (-45.0 45.0)
  end
  begin
     id 22 
     name lfingers
     direction 1 -4.48924e-011 -5.9578e-026   
     length 0.432619   
     axis 3.80223e-014 90 90   XYZ
    dof rx
    limits (0.0 90.0)
  end
  begin
     id 23
     name lthumb
     direction 0.707107 -6.34947e-011 0.707107   
     length 0.621157   
     axis -90 45 -3.84942e-014   XYZ
    dof rx rz
    limits (-45.0 45.0)
           (-45.0 45.0)
  end
  begin
     id 24 
     name rclavicle
     direction -0.955495 0.276497 -0.102848   
     length 3.36357  
     axis 0 0 0   XYZ 
    dof ry rz
    limits (-10.0 20.0)
           (-20.0 0.0)
  end
  begin
     id 25 
     name rhumerus
     direction -1 -4.48961e-011 3.30983e-027  
     length 5.23431   
     axis 180 30 90   XYZ
    dof rx ry rz
    limits (-90.0 60.0)
           (-90.0 90.0)
           (-90.0 90.0)
  end
  begin
     id 26 
     name rradius
     direction -1 -4.48965e-011 -6.63263e-027   
     length 3.55301   
     axis 180 30 90   XYZ
    dof rx
    limits (-10.0 170.0)
  end
  begin
     id 27 
     name rwrist
     direction -1 -4.48942e-011 -1.48958e-026   
     length 1.77651   
     axis 9.0955e-015 -90 -90   XYZ
    dof ry
    limits (-180.0 0.0)
  end
  begin
     id 28
     name rhand
     direction -1 -4.48977e-011 -2.97966e-026   
     length 0.772522   
     axis 1.90115e-014 -90 -90   XYZ
    dof rx rz
    limits (-90.0 90.0)
           (-45.0 45.0)
  end
  begin
     id 29
     name rfingers
     direction -1 -4.49135e-011 -5.96389e-026   
     length 0.622827   
     axis 3.80223e-014 -90 -90   XYZ
    dof rx
    limits (0.0 90.0)
  end
  begin
     id 30
     name rthumb
     direction -0.707107 -6.34969e-011 0.707107   
     length 0.894259   
     axis -90 -45 3.84942e-014   XYZ
    dof rx rz
    limits (-45.0 45.0)
           (-45.0 45.0)
  end
:hierarchy
  begin
    root lhipjoint rhipjoint lowerback
    lhipjoint lfemur
    lfemur ltibia
    ltibia lfoot
    lfoot ltoes
    rhipjoint rfemur
    rfemur rtibia
    rtibia rfoot
    rfoot rtoes
    lowerback upperback
    upperback thorax
    thorax lowerneck lclavicle rclavicle
    lowerneck upperneck
    upperneck head
    lclavicle lhumerus
    lhumerus lradius
    lradius lwrist
    lwrist lhand lthumb
    lhand lfingers
    rclavicle rhumerus
    rhumerus rradius
    rradius rwrist
    rwrist rhand rthumb
    rhand rfingers
  end

#!OML:ASF F:\VICON\USERDATA\INSTALL\rory3\rory3.ASF
:FULLY-SPECIFIED
:DEGREES
21
root -8.67756 17.5039 -11.3294 -80.2973 -82.4664 78.2219
lowerback 9.62642 2.76207 -3.41246
upperback 1.57762 3.20002 -1.35652
thorax -3.85967 1.59595 0.0968602
lowerneck -15.2762 5.31309 -8.61286
upperneck 41.9759 7.8105 4.47325
head 17.4234 1.87649 4.84721
rclavicle 6.14245e-014 -8.34896e-015
rhumerus -34.9692 -17.0914 -77.9602
rradius 32.9072
rwrist 7.74983
rhand -15.6012 10.2361
rfingers 7.12502
rthumb 10.5849 -19.4774
lclavicle 6.14245e-014 -8.34896e-015
lhumerus -27.3648 9.29218 77.6297
lradius 29.1925
lwrist -3.59159
lhand -18.9514 27.0319
lfingers 7.12502
lthumb 7.35211 56.8842
rfemur -11.7162 -5.78856 17.2362
rtibia 47.4203
rfoot -21.3359 6.07575
rtoes 1.49552
lfemur -5.06953 0.220306 -26.4979
ltibia 24.0351
lfoot -15.4678 -6.49407
ltoes -16.6936
22
root -8.67547 17.5033 -11.2783 -80.9567 -82.7825 78.5634
lowerback 9.9344 2.77545 -2.70509
upperback 1.64793 3.27844 -1.36048
thorax -3.91961 1.62488 -0.324823
lowerneck -15.3065 5.37122 -8.73652
upperneck 41.9886 7.98007 4.41328
head 17.4202 1.91703 4.87053
rclavicle -2.47984e-014 2.06736e-014
rhumerus -34.9577 -16.8182 -78.1021
rradius 32.7205
rwrist 7.62811
rhand -15.6372 10.1694
rfingers 7.12502
rthumb 10.5501 -19.5458
lclavicle -2.47984e-014 2.06736e-014
lhumerus -27.3322 9.62665 77.4731
lradius 28.982
lwrist -3.8396
lhand -19.3833 27.1296
lfingers 7.12502
lthumb 6.93519 56.996
rfemur -10.9243 -5.45654 17.4632
rtibia 46.6287
rfoot -21.3376 5.93102
rtoes 3.69304
lfemur -4.83675 0.545846 -26.2195
ltibia 24.2933
lfoot -15.85 -6.62165
ltoes -16.9128
23
root -8.67098 17.4994 -11.2213 -81.2175 -83.0941 78.5342
lowerback 10.1781 2.77204 -1.93098
upperback 1.75296 3.3492 -1.35156
thorax -3.90245 1.64888 -0.765636
lowerneck -15.3032 5.38984 -8.86521
upperneck 41.8811 8.11441 4.29189
head 17.349 1.94588 4.8517
rclavicle 2.11706e-014 -3.97569e-015
rhumerus -34.8802 -16.7194 -78.1233
rradius 32.5083
rwrist 7.76021
rhand -15.5292 10.0605
rfingers 7.12502
rthumb 10.6543 -19.6494
lclavicle 2.11706e-014 -3.97569e-015
lhumerus -27.178 10.29 77.2905
lradius 28.6557
lwrist -4.51243
lhand -19.7311 26.8277
lfingers 7.12502
lthumb 6.59945 56.7048
rfemur -10.1969 -5.25772 17.6407
rtibia 45.8544
rfoot -21.277 6.19654
rtoes 5.48607
lfemur -4.68723 0.956753 -25.9484
ltibia 24.6031
lfoot -16.3053 -6.87802
ltoes -17.2846
24
root -8.6654 17.4897 -11.1657 -81.0402 -83.1501 78.2378
lowerback 10.3001 2.78523 -1.47449
upperback 1.77697 3.41067 -1.4018
thorax -3.91534 1.67315 -1.08628
lowerneck -15.317 5.3844 -8.87121
upperneck 41.8902 8.16641 4.17075
head 17.3644 1.94801 4.80812
rclavicle 3.43897e-014 -3.22031e-014
rhumerus -34.8593 -16.6374 -78.1033
rradius 32.2344
rwrist 7.92016
rhand -15.5853 10.0373
rfingers 7.12502
rthumb 10.6002 -19.6753
lclavicle 3.43897e-014 -3.22031e-014
lhumerus -27.1947 11.1358 77.0649
lradius 28.4603
lwrist -5.58357
lhand -19.2609 26.7984
lfingers 7.12502
lthumb 7.05328 56.6609
rfemur -9.68273 -5.10393 17.5591
rtibia 45.1302
rfoot -21.3713 6.23358
rtoes 5.31348
lfemur -4.75263 1.10995 -25.978
ltibia 24.9923
lfoot -16.8872 -7.04142
ltoes -18.0347
25
root -8.65815 17.4877 -11.1154 -80.0155 -83.2778 77.1847
lowerback 10.3724 2.74521 -0.990641
upperback 1.75397 3.41005 -1.40939
thorax -3.95044 1.66741 -1.36882
lowerneck -15.3787 5.32597 -8.96547
upperneck 41.9049 8.15561 4.09107
head 17.394 1.91469 4.79124
rclavicle 7.50412e-015 1.23246e-014
rhumerus -34.8289 -16.4676 -78.0834
rradius 31.9034
rwrist 7.97126
rhand -15.5038 10.2256
rfingers 7.12502
rthumb 10.6788 -19.483
lclavicle 7.50412e-015 1.23246e-014
lhumerus -27.3196 11.8463 76.887
lradius 28.3974
lwrist -6.21467
lhand -17.7011 27.8404
lfingers 7.12502
lthumb 8.55883 57.6469
rfemur -9.27649 -4.66126 17.5657
rtibia 44.4925
rfoot -21.6386 6.09483
rtoes 5.95924
lfemur -4.9232 0.971415 -25.8824
ltibia 25.4137
lfoot -17.3017 -7.44924
ltoes -17.4856
26
root -8.64823 17.49 -11.0668 -78.7103 -83.3786 75.9212
lowerback 10.4352 2.68452 -0.570518
upperback 1.69107 3.37823 -1.38275
thorax -4.02833 1.64712 -1.57718
lowerneck -15.3245 5.34235 -9.11877
upperneck 41.8367 8.26192 4.01669
head 17.3296 1.93106 4.7928
rclavicle -3.8117e-014 -6.36111e-015
rhumerus -34.8072 -16.2387 -77.9639
rradius 31.6334
rwrist 8.03286
rhand -14.5481 10.3323
rfingers 7.12502
rthumb 11.6006 -19.3266
lclavicle -3.8117e-014 -6.36111e-015
lhumerus -27.5683 12.9807 76.6096
lradius 28.4363
lwrist -6.83898
lhand -15.3573 28.8827
lfingers 7.12502
lthumb 10.8201 58.584
rfemur -9.00249 -4.12771 17.5106
rtibia 43.9446
rfoot -21.8846 6.06974
rtoes 6.77631
lfemur -5.2035 0.971823 -25.7894
ltibia 25.8656
lfoot -17.798 -7.98667
ltoes -17.4556
27
root -8.63617 17.4831 -11.0154 -77.8543 -83.2956 75.2182
lowerback 10.3852 2.62339 -0.413096
upperback 1.6103 3.32004 -1.33706
thorax -4.07973 1.61747 -1.61007
lowerneck -15.3019 5.44121 -9.29637
upperneck 41.8778 8.51764 3.91413
head 17.3218 1.98949 4.81761
rclavicle -2.99668e-014 1.11319e-014
rhumerus -34.7053 -15.728 -77.8418
rradius 31.3661
rwrist 8.08492
rhand -13.3259 10.223
rfingers 7.12502
rthumb 12.779 -19.3659
lclavicle -2.99668e-014 1.11319e-014
lhumerus -27.8806 14.5592 76.3487
lradius 28.4419
lwrist -7.59725
lhand -14.8905 28.5742
lfingers 7.12502
lthumb 11.2703 58.2515
rfemur -8.90295 -3.82796 17.2465
rtibia 43.4222
rfoot -22.076 6.23786
rtoes 6.45975
lfemur -5.66715 1.19893 -25.9452
ltibia 26.3926
lfoot -18.5855 -7.95502
ltoes -20.2362
28
root -8.62798 17.4804 -10.9665 -76.6467 -83.2277 74.2012
lowerback 10.2588 2.55954 -0.286035
upperback 1.52288 3.25601 -1.29372
thorax -4.09762 1.58568 -1.62395
lowerneck -15.3979 5.49023 -9.39082
upperneck 42.0014 8.68341 3.81898
head 17.4056 2.01467 4.8302
rclavicle -1.76421e-014 8.74653e-015
rhumerus -34.5686 -15.3073 -77.7352
rradius 31.0144
rwrist 8.28019
rhand -13.1049 9.98065
rfingers 7.12502
rthumb 12.992 -19.5948
lclavicle -1.76421e-014 8.74653e-015
lhumerus -28.1821 15.8307 76.2273
lradius 28.4247
lwrist -7.98142
lhand -15.7442 28.0639
lfingers 7.12502
lthumb 10.4469 57.7844
rfemur -8.82671 -3.71463 17.0135
rtibia 42.8799
rfoot -22.2353 6.51086
rtoes 4.70434
lfemur -6.21164 1.51022 -26.0169
ltibia 26.9795
lfoot -19.2371 -8.47748
ltoes -21.7504
29
root -8.62194 17.4925 -10.9225 -74.8115 -83.2725 72.4642
lowerback 10.2183 2.5426 -0.135486
upperback 1.44804 3.25746 -1.20342
thorax -4.14998 1.58562 -1.61513
lowerneck -15.4731 5.44545 -9.45152
upperneck 42.1087 8.67256 3.76645
head 17.4915 1.98116 4.82678
rclavicle -2.61899e-014 -6.36111e-015
rhumerus -34.5421 -15.1309 -77.4853
rradius 30.7427
rwrist 8.61149
rhand -13.0662 9.87494
rfingers 7.12502
rthumb 13.0294 -19.6981
lclavicle -2.61899e-014 -6.36111e-015
lhumerus -28.4503 16.6247 76.2629
lradius 28.4289
lwrist -8.03654
lhand -16.3519 27.9301
lfingers 7.12502
lthumb 9.86067 57.6792
rfemur -8.60596 -3.58765 16.9177
rtibia 42.3123
rfoot -22.4077 6.73923
rtoes 3.66464
lfemur -6.65262 1.58695 -25.8384
ltibia 27.5663
lfoot -19.4258 -10.0222
ltoes -20.1361
30
root -8.61171 17.5044 -10.8784 -72.5291 -83.3183 70.2309
lowerback 10.2836 2.51368 0.0656744
upperback 1.37083 3.24663 -1.12469
thorax -4.26038 1.57763 -1.65047
lowerneck -15.5224 5.42864 -9.42425
upperneck 42.2351 8.67178 3.7089
head 17.586 1.96342 4.80753
rclavicle -1.18774e-014 -7.95139e-016
rhumerus -34.5555 -14.9264 -77.2529
rradius 30.5491
rwrist 8.68296
rhand -12.9442 9.90811
rfingers 7.12502
rthumb 13.147 -19.6574
lclavicle -1.18774e-014 -7.95139e-016
lhumerus -28.7827 17.5024 76.2304
lradius 28.4686
lwrist -8.15009
lhand -16.8793 27.6137
lfingers 7.12502
lthumb 9.35183 57.3862
rfemur -8.3085 -3.51509 16.8509
rtibia 41.7247
rfoot -22.5785 6.88439
rtoes 4.38561
lfemur -7.05253 1.33149 -25.6303
ltibia 28.1927
lfoot -19.5641 -11.3244
ltoes -19.5403
